<svg version="1.1" viewBox="0.0 0.0 430.01049868766404 328.005249343832" fill="none" stroke="none" stroke-linecap="square" stroke-miterlimit="10" xmlns:xlink="http://www.w3.org/1999/xlink" xmlns="http://www.w3.org/2000/svg"><clipPath id="p.0"><path d="m0 0l430.0105 0l0 328.00525l-430.0105 0l0 -328.00525z" clip-rule="nonzero"/></clipPath><g clip-path="url(#p.0)"><path fill="#000000" fill-opacity="0.0" d="m0 0l430.0105 0l0 328.00525l-430.0105 0z" fill-rule="evenodd"/><path fill="#000000" fill-opacity="0.0" d="m18.091864 65.06562l52.314957 -0.28347015" fill-rule="evenodd"/><path stroke="#000000" stroke-width="8.0" stroke-linejoin="round" stroke-linecap="butt" d="m18.091864 65.06562l52.314957 -0.28347015" fill-rule="evenodd"/><path fill="#000000" fill-opacity="0.0" d="m18.091864 191.29659l52.314957 -0.28346252" fill-rule="evenodd"/><path stroke="#000000" stroke-width="8.0" stroke-linejoin="round" stroke-linecap="butt" d="m18.091864 191.29659l52.314957 -0.28346252" fill-rule="evenodd"/><path fill="#000000" fill-opacity="0.0" d="m18.091864 257.2966l52.314957 -0.28347778" fill-rule="evenodd"/><path stroke="#000000" stroke-width="8.0" stroke-linejoin="round" stroke-linecap="butt" d="m18.091864 257.2966l52.314957 -0.28347778" fill-rule="evenodd"/><path fill="#000000" fill-opacity="0.0" d="m18.091864 128.1811l52.314957 -0.28347015" fill-rule="evenodd"/><path stroke="#000000" stroke-width="8.0" stroke-linejoin="round" stroke-linecap="butt" d="m18.091864 128.1811l52.314957 -0.28347015" fill-rule="evenodd"/><path fill="#000000" fill-opacity="0.0" d="m69.414696 155.34586c10.932632 2.424759 42.597115 33.099747 65.5958 14.548569c22.998688 -18.551193 48.140854 -142.06737 72.39633 -125.85565c24.255463 16.211723 53.335938 203.13998 73.136475 223.12599c19.800537 19.985992 32.826324 -84.84253 45.666656 -103.20998c12.840332 -18.367462 26.146118 -5.828964 31.375336 -6.994751" fill-rule="evenodd"/><path stroke="#389826" stroke-width="12.0" stroke-linejoin="round" stroke-linecap="butt" d="m69.414696 155.34586c10.932632 2.424759 42.597115 33.099747 65.5958 14.548569c22.998688 -18.551193 48.140854 -142.06737 72.39633 -125.85565c24.255463 16.211723 53.335938 203.13998 73.136475 223.12599c19.800537 19.985992 32.826324 -84.84253 45.666656 -103.20998c12.840332 -18.367462 26.146118 -5.828964 31.375336 -6.994751" fill-rule="evenodd"/><path fill="#000000" fill-opacity="0.0" d="m70.78215 155.78764c8.848648 -10.395462 29.316711 -78.843834 53.091866 -62.37271c23.775154 16.47113 59.982506 154.64043 89.55906 161.19948c29.576553 6.5590515 63.785217 -106.10718 87.90027 -121.84514c24.115051 -15.737976 47.325012 22.847763 56.79001 27.417313" fill-rule="evenodd"/><path stroke="#9558b2" stroke-width="12.0" stroke-linejoin="round" stroke-linecap="butt" d="m70.78215 155.78764c8.848648 -10.395462 29.316711 -78.843834 53.091866 -62.37271c23.775154 16.47113 59.982506 154.64043 89.55906 161.19948c29.576553 6.5590515 63.785217 -106.10718 87.90027 -121.84514c24.115051 -15.737976 47.325012 22.847763 56.79001 27.417313" fill-rule="evenodd"/><path fill="#000000" fill-opacity="0.0" d="m358.4987 65.64173l52.314972 -0.28346252" fill-rule="evenodd"/><path stroke="#000000" stroke-width="8.0" stroke-linejoin="round" stroke-linecap="butt" d="m358.4987 65.64173l52.314972 -0.28346252" fill-rule="evenodd"/><path fill="#000000" fill-opacity="0.0" d="m71.154854 158.7581c13.79834 16.582687 47.396767 115.9554 82.79003 99.49608c35.393265 -16.459335 95.69379 -181.45013 129.56955 -198.25198c33.875763 -16.801838 61.404205 81.20079 73.68503 97.44095" fill-rule="evenodd"/><path stroke="#cb3c33" stroke-width="12.0" stroke-linejoin="round" stroke-linecap="butt" d="m71.154854 158.7581c13.79834 16.582687 47.396767 115.9554 82.79003 99.49608c35.393265 -16.459335 95.69379 -181.45013 129.56955 -198.25198c33.875763 -16.801838 61.404205 81.20079 73.68503 97.44095" fill-rule="evenodd"/><path fill="#000000" fill-opacity="0.0" d="m358.4987 191.8727l52.314972 -0.28346252" fill-rule="evenodd"/><path stroke="#000000" stroke-width="8.0" stroke-linejoin="round" stroke-linecap="butt" d="m358.4987 191.8727l52.314972 -0.28346252" fill-rule="evenodd"/><path fill="#000000" fill-opacity="0.0" d="m358.4987 257.8727l52.314972 -0.28347778" fill-rule="evenodd"/><path stroke="#000000" stroke-width="8.0" stroke-linejoin="round" stroke-linecap="butt" d="m358.4987 257.8727l52.314972 -0.28347778" fill-rule="evenodd"/><path fill="#000000" fill-opacity="0.0" d="m358.4987 128.75722l52.314972 -0.28346252" fill-rule="evenodd"/><path stroke="#000000" stroke-width="8.0" stroke-linejoin="round" stroke-linecap="butt" d="m358.4987 128.75722l52.314972 -0.28346252" fill-rule="evenodd"/><path fill="#000000" fill-opacity="0.0" d="m70.3937 65.72274l0 0c0 -26.481201 21.467262 -47.948463 47.948463 -47.948463l191.9141 0l0 0c12.716736 0 24.912598 5.0516987 33.904694 14.043779c8.992065 8.992081 14.043762 21.187962 14.043762 33.904682l0 191.78812c0 26.481201 -21.467255 47.948456 -47.948456 47.948456l-191.9141 0c-26.481201 0 -47.948463 -21.467255 -47.948463 -47.948456z" fill-rule="evenodd"/><path stroke="#000000" stroke-width="8.0" stroke-linejoin="round" stroke-linecap="butt" d="m70.3937 65.72274l0 0c0 -26.481201 21.467262 -47.948463 47.948463 -47.948463l191.9141 0l0 0c12.716736 0 24.912598 5.0516987 33.904694 14.043779c8.992065 8.992081 14.043762 21.187962 14.043762 33.904682l0 191.78812c0 26.481201 -21.467255 47.948456 -47.948456 47.948456l-191.9141 0c-26.481201 0 -47.948463 -21.467255 -47.948463 -47.948456z" fill-rule="evenodd"/></g></svg>