<svg version="1.1" viewBox="0.0 0.0 505.26246719160105 423.6062992125984" fill="none" stroke="none" stroke-linecap="square" stroke-miterlimit="10" xmlns:xlink="http://www.w3.org/1999/xlink" xmlns="http://www.w3.org/2000/svg"><clipPath id="p.0"><path d="m0 0l505.26248 0l0 423.6063l-505.26248 0l0 -423.6063z" clip-rule="nonzero"/></clipPath><g clip-path="url(#p.0)"><path fill="#000000" fill-opacity="0.0" d="m0 0l505.26248 0l0 423.6063l-505.26248 0z" fill-rule="evenodd"/><path fill="#000000" fill-opacity="0.0" d="m55.716534 163.59055l52.31496 -0.28346252" fill-rule="evenodd"/><path stroke="#000000" stroke-width="8.0" stroke-linejoin="round" stroke-linecap="butt" d="m55.716534 163.59055l52.31496 -0.28346252" fill-rule="evenodd"/><path fill="#000000" fill-opacity="0.0" d="m55.716534 289.82153l52.31496 -0.28347778" fill-rule="evenodd"/><path stroke="#000000" stroke-width="8.0" stroke-linejoin="round" stroke-linecap="butt" d="m55.716534 289.82153l52.31496 -0.28347778" fill-rule="evenodd"/><path fill="#000000" fill-opacity="0.0" d="m55.716534 355.82153l52.31496 -0.28347778" fill-rule="evenodd"/><path stroke="#000000" stroke-width="8.0" stroke-linejoin="round" stroke-linecap="butt" d="m55.716534 355.82153l52.31496 -0.28347778" fill-rule="evenodd"/><path fill="#000000" fill-opacity="0.0" d="m28.979002 9.283464l445.88977 0l0 100.18898l-445.88977 0z" fill-rule="evenodd"/><path fill="#000000" d="m56.954865 82.28346l0 -43.45312l15.390625 0q4.734375 0 8.5625 1.296875q3.84375 1.296875 6.140625 4.359375q2.296875 3.0625 2.296875 8.328125q0 5.078125 -2.328125 8.34375q-2.328125 3.2656212 -6.203125 4.828121q-3.859375 1.5625 -8.46875 1.5625l-5.59375 0l0 14.734375l-9.796875 0zm9.796875 -22.531246l5.0 0q4.0625 0 6.03125 -1.796875q1.96875 -1.796875 1.96875 -5.140625q0 -3.453125 -2.03125 -4.8125q-2.03125 -1.375 -5.96875 -1.375l-5.0 0l0 13.125zm43.72818 22.531246l0 -25.390621l-13.328125 0l0 -7.671875l23.125 0l0 33.062496l-9.796875 0zm4.46875 -38.26562q-2.796875 0 -4.671875 -1.625q-1.859375 -1.640625 -1.859375 -4.296875q0 -2.734375 1.859375 -4.4375q1.875 -1.7031269 4.671875 -1.7031269q2.859375 0 4.6875 1.7031269q1.84375 1.703125 1.84375 4.4375q0 2.65625 -1.84375 4.296875q-1.828125 1.625 -4.6875 1.625zm39.85318 39.062496q-5.203125 0 -9.375 -2.03125q-4.15625 -2.03125 -6.59375 -5.921875q-2.421875 -3.90625 -2.421875 -9.375q0 -5.468746 2.65625 -9.359371q2.671875 -3.90625 7.03125 -5.9375q4.375 -2.03125 9.4375 -2.03125q3.9375 0 7.125 1.234375q3.203125 1.234375 5.28125 3.234375l-4.53125 6.0625q-1.9375 -1.328125 -3.703125 -1.953125q-1.765625 -0.640625 -3.640625 -0.640625q-2.796875 0 -5.0 1.140625q-2.1875 1.125 -3.390625 3.265625q-1.203125 2.125 -1.203125 4.984371q0 2.859375 1.15625 5.0q1.171875 2.125 3.265625 3.265625q2.109375 1.140625 4.84375 1.140625q2.59375 0 4.765625 -0.9375q2.171875 -0.9375 3.96875 -2.203125l3.9375 6.203125q-2.9375 2.46875 -6.578125 3.671875q-3.625 1.1875 -7.03125 1.1875zm39.993805 0q-5.203125 0 -9.375 -2.03125q-4.15625 -2.03125 -6.59375 -5.921875q-2.421875 -3.90625 -2.421875 -9.375q0 -5.468746 2.65625 -9.359371q2.671875 -3.90625 7.03125 -5.9375q4.375 -2.03125 9.4375 -2.03125q3.9375 0 7.125 1.234375q3.203125 1.234375 5.28125 3.234375l-4.53125 6.0625q-1.9375 -1.328125 -3.703125 -1.953125q-1.765625 -0.640625 -3.640625 -0.640625q-2.796875 0 -5.0 1.140625q-2.1875 1.125 -3.390625 3.265625q-1.203125 2.125 -1.203125 4.984371q0 2.859375 1.15625 5.0q1.171875 2.125 3.265625 3.265625q2.109375 1.140625 4.84375 1.140625q2.59375 0 4.765625 -0.9375q2.171875 -0.9375 3.96875 -2.203125l3.9375 6.203125q-2.9375 2.46875 -6.578125 3.671875q-3.625 1.1875 -7.03125 1.1875zm37.13443 0q-4.328125 0 -8.203125 -2.03125q-3.859375 -2.03125 -6.265625 -5.921875q-2.390625 -3.90625 -2.390625 -9.375q0 -5.468746 2.390625 -9.359371q2.40625 -3.90625 6.265625 -5.9375q3.875 -2.03125 8.203125 -2.03125q4.328125 0 8.1875 2.03125q3.875 2.03125 6.265625 5.9375q2.40625 3.890625 2.40625 9.359371q0 5.46875 -2.40625 9.375q-2.390625 3.890625 -6.265625 5.921875q-3.859375 2.03125 -8.1875 2.03125zm0 -7.921875q2.265625 0 3.765625 -1.140625q1.5 -1.140625 2.265625 -3.265625q0.765625 -2.140625 0.765625 -5.0q0 -2.8593712 -0.765625 -4.984371q-0.765625 -2.140625 -2.265625 -3.265625q-1.5 -1.140625 -3.765625 -1.140625q-2.265625 0 -3.765625 1.140625q-1.5 1.125 -2.265625 3.265625q-0.765625 2.125 -0.765625 4.984371q0 2.859375 0.765625 5.0q0.765625 2.125 2.265625 3.265625q1.5 1.140625 3.765625 1.140625zm46.32193 7.921875q-6.203125 0 -9.40625 -3.734375q-3.1875 -3.734375 -3.1875 -10.0l0 -26.062496l-10.328125 0l0 -7.65625l20.125 0l0 34.124996q0 3.0625 1.65625 4.234375q1.671875 1.171875 3.671875 1.171875q1.203125 0 2.4375 -0.265625q1.234375 -0.28125 2.765625 -0.8125l2.125 7.203125q-2.53125 0.796875 -4.625 1.296875q-2.09375 0.5 -5.234375 0.5zm33.66568 0q-4.328125 0 -8.203125 -2.03125q-3.859375 -2.03125 -6.265625 -5.921875q-2.390625 -3.90625 -2.390625 -9.375q0 -5.468746 2.390625 -9.359371q2.40625 -3.90625 6.265625 -5.9375q3.875 -2.03125 8.203125 -2.03125q4.328125 0 8.1875 2.03125q3.875 2.03125 6.265625 5.9375q2.40625 3.890625 2.40625 9.359371q0 5.46875 -2.40625 9.375q-2.390625 3.890625 -6.265625 5.921875q-3.859375 2.03125 -8.1875 2.03125zm0 -7.921875q2.265625 0 3.765625 -1.140625q1.5 -1.140625 2.265625 -3.265625q0.765625 -2.140625 0.765625 -5.0q0 -2.8593712 -0.765625 -4.984371q-0.765625 -2.140625 -2.265625 -3.265625q-1.5 -1.140625 -3.765625 -1.140625q-2.265625 0 -3.765625 1.140625q-1.5 1.125 -2.265625 3.265625q-0.765625 2.125 -0.765625 4.984371q0 2.859375 0.765625 5.0q0.765625 2.125 2.265625 3.265625q1.5 1.140625 3.765625 1.140625zm39.993805 7.921875q-3.40625 0 -5.578125 -2.265625q-2.15625 -2.265625 -2.15625 -5.53125q0 -3.265625 2.15625 -5.5625q2.171875 -2.296875 5.578125 -2.296875q3.46875 0 5.59375 2.296875q2.140625 2.296875 2.140625 5.5625q0 3.265625 -2.140625 5.53125q-2.125 2.265625 -5.59375 2.265625zm32.993805 12.265625q-3.0625 0 -5.5625 -0.640625q-2.5 -0.625 -4.640625 -1.625l2.875 -7.0q2.0 0.875 3.625 1.234375q1.640625 0.375 3.09375 0.375q2.40625 0 3.734375 -0.78125q1.34375 -0.765625 1.875 -2.296875q0.53125 -1.53125 0.53125 -3.921875l0 -23.796871l-13.328125 0l0 -7.671875l23.125 0l0 31.062496q0 3.0625 -0.734375 5.765625q-0.734375 2.703125 -2.46875 4.796875q-1.734375 2.109375 -4.703125 3.296875q-2.953125 1.203125 -7.421875 1.203125zm10.0 -51.32812q-2.796875 0 -4.671875 -1.625q-1.859375 -1.640625 -1.859375 -4.296875q0 -2.734375 1.859375 -4.4375q1.875 -1.7031269 4.671875 -1.7031269q2.859375 0 4.6875 1.7031269q1.84375 1.703125 1.84375 4.4375q0 2.65625 -1.84375 4.296875q-1.828125 1.625 -4.6875 1.625zm43.32193 39.062496q-6.203125 0 -9.40625 -3.734375q-3.1875 -3.734375 -3.1875 -10.0l0 -26.062496l-10.328125 0l0 -7.65625l20.125 0l0 34.124996q0 3.0625 1.65625 4.234375q1.671875 1.171875 3.671875 1.171875q1.203125 0 2.4375 -0.265625q1.234375 -0.28125 2.765625 -0.8125l2.125 7.203125q-2.53125 0.796875 -4.625 1.296875q-2.09375 0.5 -5.234375 0.5z" fill-rule="nonzero"/><path fill="#000000" fill-opacity="0.0" d="m55.716534 226.70604l52.31496 -0.28346252" fill-rule="evenodd"/><path stroke="#000000" stroke-width="8.0" stroke-linejoin="round" stroke-linecap="butt" d="m55.716534 226.70604l52.31496 -0.28346252" fill-rule="evenodd"/><path fill="#000000" fill-opacity="0.0" d="m107.03937 253.87079c10.932632 2.4247742 42.597122 33.09973 65.59581 14.548553c22.998688 -18.551178 48.140854 -142.06735 72.39632 -125.85564c24.255463 16.211731 53.335968 203.14 73.136475 223.12599c19.800537 19.985992 32.826355 -84.84253 45.666687 -103.20999c12.840332 -18.367447 26.146088 -5.828949 31.375305 -6.9947357" fill-rule="evenodd"/><path stroke="#389826" stroke-width="12.0" stroke-linejoin="round" stroke-linecap="butt" d="m107.03937 253.87079c10.932632 2.4247742 42.597122 33.09973 65.59581 14.548553c22.998688 -18.551178 48.140854 -142.06735 72.39632 -125.85564c24.255463 16.211731 53.335968 203.14 73.136475 223.12599c19.800537 19.985992 32.826355 -84.84253 45.666687 -103.20999c12.840332 -18.367447 26.146088 -5.828949 31.375305 -6.9947357" fill-rule="evenodd"/><path fill="#000000" fill-opacity="0.0" d="m108.40682 254.31258c8.848648 -10.395447 29.31672 -78.84384 53.091866 -62.37271c23.775146 16.47113 59.9825 154.64043 89.55905 161.19948c29.576569 6.5590515 63.785217 -106.10718 87.90027 -121.84514c24.115051 -15.737976 47.325012 22.847763 56.79001 27.417313" fill-rule="evenodd"/><path stroke="#9558b2" stroke-width="12.0" stroke-linejoin="round" stroke-linecap="butt" d="m108.40682 254.31258c8.848648 -10.395447 29.31672 -78.84384 53.091866 -62.37271c23.775146 16.47113 59.9825 154.64043 89.55905 161.19948c29.576569 6.5590515 63.785217 -106.10718 87.90027 -121.84514c24.115051 -15.737976 47.325012 22.847763 56.79001 27.417313" fill-rule="evenodd"/><path fill="#000000" fill-opacity="0.0" d="m396.12335 164.16667l52.314972 -0.28346252" fill-rule="evenodd"/><path stroke="#000000" stroke-width="8.0" stroke-linejoin="round" stroke-linecap="butt" d="m396.12335 164.16667l52.314972 -0.28346252" fill-rule="evenodd"/><path fill="#000000" fill-opacity="0.0" d="m108.779526 257.28305c13.79834 16.582672 47.39676 115.95538 82.79002 99.49606c35.393265 -16.45932 95.69379 -181.45015 129.56955 -198.25198c33.875763 -16.801834 61.404205 81.20079 73.68506 97.44095" fill-rule="evenodd"/><path stroke="#cb3c33" stroke-width="12.0" stroke-linejoin="round" stroke-linecap="butt" d="m108.779526 257.28305c13.79834 16.582672 47.39676 115.95538 82.79002 99.49606c35.393265 -16.45932 95.69379 -181.45015 129.56955 -198.25198c33.875763 -16.801834 61.404205 81.20079 73.68506 97.44095" fill-rule="evenodd"/><path fill="#000000" fill-opacity="0.0" d="m396.12335 290.39764l52.314972 -0.28347778" fill-rule="evenodd"/><path stroke="#000000" stroke-width="8.0" stroke-linejoin="round" stroke-linecap="butt" d="m396.12335 290.39764l52.314972 -0.28347778" fill-rule="evenodd"/><path fill="#000000" fill-opacity="0.0" d="m396.12335 356.39764l52.314972 -0.28347778" fill-rule="evenodd"/><path stroke="#000000" stroke-width="8.0" stroke-linejoin="round" stroke-linecap="butt" d="m396.12335 356.39764l52.314972 -0.28347778" fill-rule="evenodd"/><path fill="#000000" fill-opacity="0.0" d="m396.12335 227.28215l52.314972 -0.28346252" fill-rule="evenodd"/><path stroke="#000000" stroke-width="8.0" stroke-linejoin="round" stroke-linecap="butt" d="m396.12335 227.28215l52.314972 -0.28346252" fill-rule="evenodd"/><path fill="#000000" fill-opacity="0.0" d="m108.01837 164.24768l0 0c0 -26.481216 21.467255 -47.94847 47.94847 -47.94847l191.91408 0l0 0c12.716736 0 24.912628 5.0517044 33.904694 14.043777c8.992096 8.992081 14.043793 21.187973 14.043793 33.904694l0 191.78812c0 26.481201 -21.467255 47.948456 -47.948486 47.948456l-191.91408 0c-26.481216 0 -47.94847 -21.467255 -47.94847 -47.948456z" fill-rule="evenodd"/><path stroke="#000000" stroke-width="8.0" stroke-linejoin="round" stroke-linecap="butt" d="m108.01837 164.24768l0 0c0 -26.481216 21.467255 -47.94847 47.94847 -47.94847l191.91408 0l0 0c12.716736 0 24.912628 5.0517044 33.904694 14.043777c8.992096 8.992081 14.043793 21.187973 14.043793 33.904694l0 191.78812c0 26.481201 -21.467255 47.948456 -47.948486 47.948456l-191.91408 0c-26.481216 0 -47.94847 -21.467255 -47.94847 -47.948456z" fill-rule="evenodd"/></g></svg>